<svg viewBox="0 0 28 28" xmlns="http://www.w3.org/2000/svg" xmlns:xlink="http://www.w3.org/1999/xlink" width="28.000000" height="28.000000" fill="none" customFrame="url(#clipPath_2)">
	<defs>
		<clipPath id="clipPath_2">
			<rect width="28.000000" height="28.000000" x="0.000000" y="0.000000" rx="14.000000" fill="rgb(255,255,255)" transform="matrix(1,1.74846e-07,1.74846e-07,-1,0,28)" />
		</clipPath>
		<clipPath id="clipPath_3">
			<rect width="20.000000" height="20.000000" x="0.000000" y="0.000000" fill="rgb(255,255,255)" transform="matrix(1,1.74846e-07,1.74846e-07,-1,4,24)" />
		</clipPath>
	</defs>
	<rect id="Arrow_btn" width="27.000000" height="27.000000" x="0.500000" y="0.500000" rx="13.500000" stroke="rgb(106,11,255)" stroke-width="1" transform="matrix(1,1.74846e-07,1.74846e-07,-1,0,28)" />
	<g id="Outline / Arrows / Arrow Right" clip-path="url(#clipPath_3)" customFrame="url(#clipPath_3)">
		<rect id="Outline / Arrows / Arrow Right" width="20.000000" height="20.000000" x="0.000000" y="0.000000" transform="matrix(1,1.74846e-07,1.74846e-07,-1,4,24)" />
		<path id="Vector" d="M8.51639 0.183058C8.76047 -0.0610194 9.1562 -0.0610194 9.40027 0.183058L14.4003 5.18306C14.6444 5.42714 14.6444 5.82286 14.4003 6.06694L9.40027 11.0669C9.1562 11.311 8.76047 11.311 8.51639 11.0669C8.27231 10.8229 8.27231 10.4271 8.51639 10.1831L12.4495 6.25L0.625 6.25C0.279822 6.25 0 5.97018 0 5.625C0 5.27982 0.279822 5 0.625 5L12.4495 5L8.51639 1.06694C8.27231 0.822864 8.27231 0.427136 8.51639 0.183058Z" fill="rgb(106,11,255)" fill-rule="evenodd" transform="matrix(1,1.74846e-07,1.74846e-07,-1,6.70825,19.625)" />
	</g>
</svg>
