<svg viewBox="0 0 24 24" xmlns="http://www.w3.org/2000/svg" xmlns:xlink="http://www.w3.org/1999/xlink" width="24.000000" height="24.000000" fill="none">
	<rect id="Outline / Arrows / Arrow Right" width="24.000000" height="24.000000" x="0.000000" y="0.000000" />
	<path id="Vector" d="M13.4697 5.46967C13.7626 5.17678 14.2374 5.17678 14.5303 5.46967L20.5303 11.4697C20.8232 11.7626 20.8232 12.2374 20.5303 12.5303L14.5303 18.5303C14.2374 18.8232 13.7626 18.8232 13.4697 18.5303C13.1768 18.2374 13.1768 17.7626 13.4697 17.4697L18.1893 12.75L4 12.75C3.58579 12.75 3.25 12.4142 3.25 12C3.25 11.5858 3.58579 11.25 4 11.25L18.1893 11.25L13.4697 6.53033C13.1768 6.23744 13.1768 5.76256 13.4697 5.46967Z" fill="rgb(106,11,255)" fill-rule="evenodd" />
	<path id="Vector" d="M13.4697 5.46967C13.1768 5.76256 13.1768 6.23744 13.4697 6.53033L18.1893 11.25L4 11.25C3.58579 11.25 3.25 11.5858 3.25 12C3.25 12.4142 3.58579 12.75 4 12.75L18.1893 12.75L13.4697 17.4697C13.1768 17.7626 13.1768 18.2374 13.4697 18.5303C13.7626 18.8232 14.2374 18.8232 14.5303 18.5303L20.5303 12.5303C20.8232 12.2374 20.8232 11.7626 20.5303 11.4697L14.5303 5.46967C14.2374 5.17678 13.7626 5.17678 13.4697 5.46967Z" fill-rule="evenodd" stroke="rgb(106,11,255)" stroke-width="0.000000" />
</svg>
