<svg viewBox="0 0 20 20" xmlns="http://www.w3.org/2000/svg" xmlns:xlink="http://www.w3.org/1999/xlink" width="20.000000" height="20.000000" fill="none">
	<rect id="Outline / Search / Magnifer" width="20.000000" height="20.000000" x="0.000000" y="0.000000" />
	<path id="Vector" d="M9.58342 2.29166C5.55634 2.29166 2.29175 5.55625 2.29175 9.58332C2.29175 13.6104 5.55634 16.875 9.58342 16.875C13.6105 16.875 16.8751 13.6104 16.8751 9.58332C16.8751 5.55625 13.6105 2.29166 9.58342 2.29166ZM1.04175 9.58332C1.04175 4.86589 4.86598 1.04166 9.58342 1.04166C14.3008 1.04166 18.1251 4.86589 18.1251 9.58332C18.1251 11.7171 17.3427 13.6681 16.0491 15.1652L18.7754 17.8914C19.0194 18.1355 19.0194 18.5312 18.7754 18.7753C18.5313 19.0193 18.1356 19.0193 17.8915 18.7753L15.1653 16.049C13.6682 17.3426 11.7172 18.125 9.58342 18.125C4.86598 18.125 1.04175 14.3008 1.04175 9.58332Z" fill="rgb(163,163,163)" fill-rule="evenodd" />
</svg>
