<svg viewBox="0 0 172 33" xmlns="http://www.w3.org/2000/svg" xmlns:xlink="http://www.w3.org/1999/xlink" width="172.000000" height="33.000000" fill="none" customFrame="#000000">
	<defs>
		<clipPath id="clipPath_0">
			<rect width="33.000000" height="33.000000" x="0.000000" y="0.000000" fill="rgb(255,255,255)" />
		</clipPath>
		<clipPath id="clipPath_1">
			<rect width="21.304806" height="22.787428" x="6.000000" y="6.000000" fill="rgb(255,255,255)" />
		</clipPath>
		<clipPath id="clipPath_2">
			<rect width="99.000000" height="32.000000" x="41.000000" y="0.500000" fill="rgb(255,255,255)" />
		</clipPath>
	</defs>
	<rect id="Frame 2087327585" width="172.000000" height="33.000000" x="0.000000" y="0.000000" />
	<g id="logo" customFrame="url(#clipPath_0)">
		<rect id="logo" width="33.000000" height="33.000000" x="0.000000" y="0.000000" />
		<circle id="Ellipse 3594" cx="16.5" cy="16.5" r="16.5" fill="rgb(70,0,233)" />
		<g id="Frame 2087327379" customFrame="url(#clipPath_1)">
			<rect id="Frame 2087327379" width="21.304806" height="22.787428" x="6.000000" y="6.000000" />
			<path id="Vector" d="M26.8566 12.329C26.1873 12.7869 25.7631 13.3329 25.5909 13.9579C25.4905 14.3221 25.4558 14.6771 25.5169 14.7149C25.6108 14.7729 26.2449 14.4152 26.5437 14.1357C26.8673 13.833 27.1206 13.4043 27.2347 12.9659C27.3085 12.6827 27.3312 12.0728 27.2679 12.0728C27.2476 12.0728 27.0625 12.1881 26.8566 12.329ZM25.7985 14.1139C25.7631 14.0872 25.934 13.7611 26.0376 13.6575C26.2177 13.4774 26.2096 13.5189 26.0035 13.8334C25.8985 13.9936 25.8063 14.1198 25.7985 14.1139Z" fill="rgb(255,255,255)" fill-rule="evenodd" />
			<path id="Vector" d="M11.5345 16.9769C11.525 16.9863 11.3391 16.9723 11.1212 16.9456L10.7409 16.8971C10.7307 16.8971 10.7144 16.8854 10.7144 16.8854L10.5001 16.6509C10.0337 16.1406 9.52573 15.9777 8.39767 15.9766C7.56586 15.9759 7.5391 15.9864 7.67937 16.2588C8.02383 16.9278 8.80297 17.3535 9.68281 17.3535C9.91909 17.3535 10.2249 17.3243 10.3625 17.2887C10.5068 17.2512 10.6425 17.2398 10.6835 17.2617C10.7224 17.2826 11.0413 17.3479 11.3921 17.4069L12.0299 17.5143L11.5345 16.9769Z" fill="rgb(255,255,255)" fill-rule="evenodd" />
			<path id="Vector" d="M11.5345 16.9769C11.525 16.9863 11.3391 16.9723 11.1212 16.9456L10.7409 16.8971C10.7307 16.8971 10.7144 16.8854 10.7144 16.8854L10.5001 16.6509C10.0337 16.1406 9.52573 15.9777 8.39767 15.9766C7.56586 15.9759 7.5391 15.9864 7.67937 16.2588C8.02383 16.9278 8.80297 17.3535 9.68281 17.3535C9.91909 17.3535 10.2249 17.3243 10.3625 17.2887C10.5068 17.2512 10.6425 17.2398 10.6835 17.2617C10.7224 17.2826 11.0413 17.3479 11.3921 17.4069L12.0299 17.5143L11.5345 16.9769Z" fill="rgb(255,255,255)" fill-rule="evenodd" />
			<path id="Vector" d="M10.9822 9.75486C10.9824 9.52701 11.0098 9.26316 11.0431 9.16843C11.0765 9.07374 11.1214 8.99623 11.143 8.99623C11.2117 8.99623 11.3765 9.26481 11.4749 9.53675C11.5763 9.81713 11.6155 10.586 11.542 10.8503L11.5242 10.9141C11.5242 10.9452 11.4771 10.9559 11.4536 10.9339L11.3908 10.8749C11.1108 10.6119 10.9819 10.1165 10.9822 9.75486ZM23.8039 12.0767C23.8214 11.9751 23.898 11.8837 24.0475 11.6936C24.2016 11.4976 24.3438 11.3472 24.3634 11.3593C24.421 11.3949 24.678 12.1111 24.776 12.5091C24.926 13.1186 24.9776 13.655 24.9483 14.2999C24.8949 15.4713 24.505 16.5511 23.6948 17.771C23.2895 18.3813 22.7325 19.0385 21.6182 20.2214C20.4681 21.4423 20.332 21.5927 19.9647 22.048C18.8675 23.4082 18.3069 24.7332 18.3058 25.9689C18.305 26.8389 18.5706 27.7198 19.0693 28.5013C19.1543 28.6344 19.2237 28.7532 19.2237 28.7653C19.2237 28.7775 18.1493 28.7874 16.8361 28.7874C15.5229 28.7874 14.4485 28.7777 14.4485 28.7659C14.4485 28.754 14.6012 28.4286 14.7878 28.0427C15.1383 27.3177 15.2802 26.9594 15.8199 25.4353C16.9872 22.1387 17.8928 20.7331 19.9664 18.9993C20.9423 18.1835 21.9485 17.3921 22.7989 16.4409C22.9411 16.2818 23.078 16.1178 23.2016 15.9437C23.5074 15.5127 23.7755 14.9885 23.9347 14.5065C24.0489 14.1608 24.0638 14.0481 24.065 13.5193C24.0658 13.1646 24.0435 12.8609 23.9182 12.5291L23.9178 12.528C23.8289 12.2923 23.7862 12.1793 23.8039 12.0767Z" fill="rgb(255,255,255)" fill-rule="evenodd" />
			<path id="Vector" d="M10.9822 9.75486C10.9824 9.52701 11.0098 9.26316 11.0431 9.16843C11.0765 9.07374 11.1214 8.99623 11.143 8.99623C11.2117 8.99623 11.3765 9.26481 11.4749 9.53675C11.5763 9.81713 11.6155 10.586 11.542 10.8503L11.5242 10.9141C11.5242 10.9452 11.4771 10.9559 11.4536 10.9339L11.3908 10.8749C11.1108 10.6119 10.9819 10.1165 10.9822 9.75486ZM23.8039 12.0767C23.8214 11.9751 23.898 11.8837 24.0475 11.6936C24.2016 11.4976 24.3438 11.3472 24.3634 11.3593C24.421 11.3949 24.678 12.1111 24.776 12.5091C24.926 13.1186 24.9776 13.655 24.9483 14.2999C24.8949 15.4713 24.505 16.5511 23.6948 17.771C23.2895 18.3813 22.7325 19.0385 21.6182 20.2214C20.4681 21.4423 20.332 21.5927 19.9647 22.048C18.8675 23.4082 18.3069 24.7332 18.3058 25.9689C18.305 26.8389 18.5706 27.7198 19.0693 28.5013C19.1543 28.6344 19.2237 28.7532 19.2237 28.7653C19.2237 28.7775 18.1493 28.7874 16.8361 28.7874C15.5229 28.7874 14.4485 28.7777 14.4485 28.7659C14.4485 28.754 14.6012 28.4286 14.7878 28.0427C15.1383 27.3177 15.2802 26.9594 15.8199 25.4353C16.9872 22.1387 17.8928 20.7331 19.9664 18.9993C20.9423 18.1835 21.9485 17.3921 22.7989 16.4409C22.9411 16.2818 23.078 16.1178 23.2016 15.9437C23.5074 15.5127 23.7755 14.9885 23.9347 14.5065C24.0489 14.1608 24.0638 14.0481 24.065 13.5193C24.0658 13.1646 24.0435 12.8609 23.9182 12.5291L23.9178 12.528C23.8289 12.2923 23.7862 12.1793 23.8039 12.0767Z" fill="rgb(255,255,255)" fill-rule="evenodd" />
			<path id="Vector" d="M26.0193 8.64596C25.3125 8.93989 24.8446 9.43724 24.7278 10.0189C24.6601 10.3564 24.7042 10.6034 24.8323 10.6034C25.1312 10.6034 25.8841 10.0321 26.142 9.60971C26.2776 9.38765 26.4325 8.89874 26.4325 8.69293C26.4325 8.50343 26.3771 8.49714 26.0193 8.64596Z" fill="rgb(255,255,255)" fill-rule="evenodd" />
			<path id="Vector" d="M26.0193 8.64596C25.3125 8.93989 24.8446 9.43724 24.7278 10.0189C24.6601 10.3564 24.7042 10.6034 24.8323 10.6034C25.1312 10.6034 25.8841 10.0321 26.142 9.60971C26.2776 9.38765 26.4325 8.89874 26.4325 8.69293C26.4325 8.50343 26.3771 8.49714 26.0193 8.64596Z" fill="rgb(255,255,255)" fill-rule="evenodd" />
			<path id="Vector" d="M20.3045 6.15498C19.7286 6.83656 19.7322 8.22529 20.3114 8.9021L20.4632 9.07945C20.4632 9.07945 20.4749 9.09951 20.4749 9.11094L20.4431 9.46938C20.4039 9.93271 20.2795 10.521 20.1196 10.9994C19.8358 11.8482 19.1067 13.1159 18.3137 14.1392C17.8849 14.6925 16.8615 15.9377 16.6582 16.1578C16.6406 16.1769 16.6089 16.2096 16.5932 16.2303L16.1546 16.8059L15.8818 17.229C15.7318 17.4616 15.5804 17.7074 15.5453 17.7752L15.5117 17.8403C15.4975 17.8677 15.4598 17.8716 15.4403 17.8476L15.1831 17.5313C14.8546 17.1271 14.4039 16.7127 13.8034 16.2628L13.4237 15.9686C13.4237 15.9686 13.4108 15.963 13.4108 15.9528L13.1915 14.9276C12.7956 13.0489 12.7425 12.833 12.6194 12.6009C12.4592 12.2989 11.4003 11.2415 10.7709 10.7549L10.2978 10.3892C10.2978 10.3892 10.2844 10.3729 10.2844 10.3622L10.2304 10.0514C10.1603 9.62684 10.0065 9.33029 9.70131 9.03108C9.46186 8.79634 8.73084 8.31626 8.6841 8.363C8.67129 8.37582 8.63846 8.51316 8.61114 8.66828C8.4738 9.44798 8.92534 10.2918 9.68258 10.6707C9.86101 10.7599 10.0484 10.833 10.0991 10.833C10.1497 10.833 10.3381 10.9513 10.5176 11.0958C11.0208 11.501 12.106 12.5804 12.205 12.7742C12.2537 12.8696 12.3435 13.1899 12.4046 13.486C12.4656 13.7821 12.5884 14.3435 12.6772 14.7336C12.7661 15.1237 12.8304 15.4512 12.8201 15.4616C12.7864 15.4953 11.7591 14.7071 11.4214 14.3885C10.9724 13.965 10.5963 13.3919 10.4353 12.8861C10.3115 12.4975 10.1684 12.4283 9.8633 12.1647C9.65875 11.9879 9.47155 11.8432 9.4474 11.8432C9.37628 11.8432 9.32866 12.2409 9.33197 12.8075C9.33693 13.6574 9.56155 14.3203 10.1677 15.2736C10.2265 15.366 10.1976 15.3601 9.83231 15.2047C9.28913 14.9735 8.49772 14.3359 8.45296 14.0933C8.41558 13.8909 8.25125 13.6023 8.08177 13.4415C7.91391 13.2822 7.50631 13.0964 7.19565 13.0375C6.82497 12.9672 6 12.9766 6 13.0511C6 13.2027 6.2603 13.6067 6.50236 13.8308C6.88305 14.1833 7.4362 14.4147 7.89811 14.4147C8.05574 14.4147 8.11566 14.4502 8.38275 14.7022C8.90197 15.1921 9.24317 15.4254 9.78015 15.658C10.6918 16.0529 10.8768 16.1711 11.231 16.585C11.4074 16.7911 11.5439 16.9674 11.5345 16.9769L12.0299 17.5143L12.3327 17.8586C13.9184 19.6622 14.9294 21.216 15.3461 22.4899C15.3885 22.6198 15.4378 22.7261 15.4556 22.7261C15.4734 22.7261 15.5583 22.566 15.6442 22.3702C15.9895 21.5835 16.6255 20.5366 17.0344 20.0818C17.2097 19.8867 17.2558 19.7908 17.357 19.4106C17.6526 18.2999 18.1126 17.3035 18.9575 15.9437C19.2714 15.4384 19.3023 15.406 20.6843 14.1299C22.5418 12.4146 22.7131 12.25 22.8745 12.0253C22.95 11.9202 23.1223 11.7175 23.2575 11.5747C23.8477 10.9511 24.1367 10.2465 24.1367 9.43113C24.1367 8.98585 24.0535 8.6145 23.9154 8.44396L23.8645 8.38117C23.8478 8.36055 23.8166 8.35989 23.7991 8.37979L23.6149 8.58861C22.8859 9.41534 22.5837 10.2738 22.7093 11.1612L22.7682 11.5569C22.7682 11.57 22.7538 11.5926 22.7538 11.5926L22.5916 11.7615C22.4944 11.8627 22.0223 12.3024 21.5425 12.7386C21.0627 13.1747 20.5211 13.6765 20.339 13.8538L20.1902 13.9986C20.1555 14.0323 20.1003 13.9918 20.122 13.9486L20.1842 13.8247C20.9644 12.2703 21.2476 10.8342 21.0391 9.49014C20.9589 8.97336 20.9589 8.97323 21.0601 8.72072C21.2114 8.34289 21.2312 7.86143 21.1143 7.39925C21.0162 7.01119 20.7184 6.35496 20.5374 6.12798L20.468 6.04084C20.4511 6.0197 20.4191 6.01924 20.4017 6.03989L20.3045 6.15498Z" fill="rgb(255,255,255)" fill-rule="nonzero" />
			<path id="Vector" d="M20.3045 6.15498C19.7286 6.83656 19.7322 8.22529 20.3114 8.9021L20.4632 9.07945C20.4632 9.07945 20.4749 9.09951 20.4749 9.11094L20.4431 9.46938C20.4039 9.93271 20.2795 10.521 20.1196 10.9994C19.8358 11.8482 19.1067 13.1159 18.3137 14.1392C17.8849 14.6925 16.8615 15.9377 16.6582 16.1578C16.6406 16.1769 16.6089 16.2096 16.5932 16.2303L16.1546 16.8059L15.8818 17.229C15.7318 17.4616 15.5804 17.7074 15.5453 17.7752L15.5117 17.8403C15.4975 17.8677 15.4598 17.8716 15.4403 17.8476L15.1831 17.5313C14.8546 17.1271 14.4039 16.7127 13.8034 16.2628L13.4237 15.9686C13.4237 15.9686 13.4108 15.963 13.4108 15.9528L13.1915 14.9276C12.7956 13.0489 12.7425 12.833 12.6194 12.6009C12.4592 12.2989 11.4003 11.2415 10.7709 10.7549L10.2978 10.3892C10.2978 10.3892 10.2844 10.3729 10.2844 10.3622L10.2304 10.0514C10.1603 9.62684 10.0065 9.33029 9.70131 9.03108C9.46186 8.79634 8.73084 8.31626 8.6841 8.363C8.67129 8.37582 8.63846 8.51316 8.61114 8.66828C8.4738 9.44798 8.92534 10.2918 9.68258 10.6707C9.86101 10.7599 10.0484 10.833 10.0991 10.833C10.1497 10.833 10.3381 10.9513 10.5176 11.0958C11.0208 11.501 12.106 12.5804 12.205 12.7742C12.2537 12.8696 12.3435 13.1899 12.4046 13.486C12.4656 13.7821 12.5884 14.3435 12.6772 14.7336C12.7661 15.1237 12.8304 15.4512 12.8201 15.4616C12.7864 15.4953 11.7591 14.7071 11.4214 14.3885C10.9724 13.965 10.5963 13.3919 10.4353 12.8861C10.3115 12.4975 10.1684 12.4283 9.8633 12.1647C9.65875 11.9879 9.47155 11.8432 9.4474 11.8432C9.37628 11.8432 9.32866 12.2409 9.33197 12.8075C9.33693 13.6574 9.56155 14.3203 10.1677 15.2736C10.2265 15.366 10.1976 15.3601 9.83231 15.2047C9.28913 14.9735 8.49772 14.3359 8.45296 14.0933C8.41558 13.8909 8.25125 13.6023 8.08177 13.4415C7.91391 13.2822 7.50631 13.0964 7.19565 13.0375C6.82497 12.9672 6 12.9766 6 13.0511C6 13.2027 6.2603 13.6067 6.50236 13.8308C6.88305 14.1833 7.4362 14.4147 7.89811 14.4147C8.05574 14.4147 8.11566 14.4502 8.38275 14.7022C8.90197 15.1921 9.24317 15.4254 9.78015 15.658C10.6918 16.0529 10.8768 16.1711 11.231 16.585C11.4074 16.7911 11.5439 16.9674 11.5345 16.9769L12.0299 17.5143L12.3327 17.8586C13.9184 19.6622 14.9294 21.216 15.3461 22.4899C15.3885 22.6198 15.4378 22.7261 15.4556 22.7261C15.4734 22.7261 15.5583 22.566 15.6442 22.3702C15.9895 21.5835 16.6255 20.5366 17.0344 20.0818C17.2097 19.8867 17.2558 19.7908 17.357 19.4106C17.6526 18.2999 18.1126 17.3035 18.9575 15.9437C19.2714 15.4384 19.3023 15.406 20.6843 14.1299C22.5418 12.4146 22.7131 12.25 22.8745 12.0253C22.95 11.9202 23.1223 11.7175 23.2575 11.5747C23.8477 10.9511 24.1367 10.2465 24.1367 9.43113C24.1367 8.98585 24.0535 8.6145 23.9154 8.44396L23.8645 8.38117C23.8478 8.36055 23.8166 8.35989 23.7991 8.37979L23.6149 8.58861C22.8859 9.41534 22.5837 10.2738 22.7093 11.1612L22.7682 11.5569C22.7682 11.57 22.7538 11.5926 22.7538 11.5926L22.5916 11.7615C22.4944 11.8627 22.0223 12.3024 21.5425 12.7386C21.0627 13.1747 20.5211 13.6765 20.339 13.8538L20.1902 13.9986C20.1555 14.0323 20.1003 13.9918 20.122 13.9486L20.1842 13.8247C20.9644 12.2703 21.2476 10.8342 21.0391 9.49014C20.9589 8.97336 20.9589 8.97323 21.0601 8.72072C21.2114 8.34289 21.2312 7.86143 21.1143 7.39925C21.0162 7.01119 20.7184 6.35496 20.5374 6.12798L20.468 6.04084C20.4511 6.0197 20.4191 6.01924 20.4017 6.03989L20.3045 6.15498Z" fill="rgb(255,255,255)" fill-rule="nonzero" />
			<path id="Rectangle 240647399" d="M15.7751 27.4545L17.9145 27.4545L18.1522 28.1833L15.5374 28.1833L15.7751 27.4545Z" fill="rgb(70,0,233)" fill-rule="nonzero" />
			<path id="Rectangle 240647400" d="M16.1419 26.4261L17.7166 26.4261L17.8741 26.8976L15.9451 26.8976L16.1419 26.4261Z" fill="rgb(70,0,233)" fill-rule="nonzero" />
			<path id="Rectangle 240647401" d="M16.5115 25.4825L17.6709 25.4825L17.8521 25.8683L16.3303 25.8683L16.5115 25.4825Z" fill="rgb(70,0,233)" fill-rule="nonzero" />
			<path id="Rectangle 240647402" d="M16.8454 24.6039L17.8089 24.6039L17.9594 24.9254L16.6948 24.9254L16.8454 24.6039Z" fill="rgb(70,0,233)" fill-rule="nonzero" />
			<path id="Rectangle 240647403" d="M17.182 23.811L17.9659 23.811L18.0884 24.0468L17.0596 24.0468L17.182 23.811Z" fill="rgb(70,0,233)" fill-rule="nonzero" />
			<circle id="Ellipse 3589" cx="20.2744617" cy="28.3116932" r="0.492968291" fill="rgb(255,255,255)" />
		</g>
	</g>
	<g id="logo" customFrame="url(#clipPath_2)">
		<rect id="logo" width="99.000000" height="32.000000" x="41.000000" y="0.500000" />
		<path id="Yeahub" d="M57.4365 6.45831L62.1695 6.45831L54.9611 19.1021L54.9611 25.4105L50.5001 25.4105L50.5001 19.1021L43.2917 6.45831L48.0248 6.45831L52.7306 15.068L57.4365 6.45831ZM102.505 12.5445L102.505 12.5444Q101.236 11.7379 99.4545 11.7379Q97.6277 11.7379 96.4122 12.5999Q96.0893 12.8289 95.8096 13.1187L95.8096 6.45831L91.4573 6.45831L91.4573 25.4105L95.8096 25.4105L95.8096 18.2087C95.8096 17.3784 96.009 16.7466 96.408 16.3134C96.8251 15.8803 97.3782 15.6637 98.0673 15.6637C98.7564 15.6637 99.3004 15.8712 99.6994 16.2864C100.098 16.6835 100.298 17.2881 100.298 18.1004L100.298 25.4105L104.65 25.4105L104.65 16.7737C104.65 15.1853 104.16 13.9489 103.181 13.0645Q102.864 12.7723 102.505 12.5445ZM135.777 13.7143C134.49 12.3967 132.921 11.7379 131.071 11.7379C129.475 11.7379 128.179 12.2162 127.181 13.1728L127.181 6.45831L122.829 6.45831L122.829 25.4105L127.181 25.4105L127.181 24.2192C128.197 25.1939 129.503 25.6812 131.098 25.6812C132.966 25.6812 134.535 25.0224 135.804 23.7048C137.074 22.3872 137.708 20.7266 137.708 18.7231C137.708 16.6835 137.065 15.0139 135.777 13.7143ZM62.7737 23.786C64.1338 25.0676 65.8474 25.7083 67.9147 25.7083Q69.967 25.7083 71.5357 24.8373L71.536 24.8372Q71.6721 24.7616 71.8045 24.6795Q72.4955 24.258 72.9947 23.6729L72.9948 23.6727Q73.714 22.8297 74.0351 21.6471L70.2541 20.6454C70.1453 21.1508 69.8732 21.5569 69.438 21.8637C69.0028 22.1525 68.486 22.2969 67.8875 22.2969Q67.2295 22.2969 66.6866 22.0469Q66.3543 21.8939 66.065 21.6471C65.5754 21.2139 65.2581 20.5732 65.113 19.7248L74.4975 19.7248C74.5519 19.1833 74.5791 18.7321 74.5791 18.3711Q74.5791 16.3405 73.6813 14.8511L73.6811 14.8509Q73.2622 14.156 72.6478 13.5789Q72.0137 12.9745 71.2712 12.5685L71.2708 12.5683L71.2708 12.5683Q69.7517 11.7379 67.7787 11.7379Q65.9677 11.7379 64.5054 12.452L64.5053 12.4521Q63.5517 12.9178 62.7465 13.6872Q62.0556 14.3563 61.6018 15.1594L61.6015 15.1598Q60.7336 16.6963 60.7336 18.7231Q60.7336 20.7686 61.6141 22.3117L61.6144 22.3121Q62.0741 23.1175 62.7737 23.786ZM89.0417 21.945C89.1868 21.945 89.3953 21.8998 89.6674 21.8096L89.6674 25.4646C89.2865 25.609 88.7516 25.6812 88.0625 25.6812Q85.754 25.6812 84.7635 24.5387L84.7633 24.5385L84.7633 24.5384Q84.6335 24.3886 84.5263 24.2192C83.5833 25.1939 82.2323 25.6812 80.4733 25.6812C79.0951 25.6812 77.9708 25.3202 77.1003 24.5983Q76.6797 24.2419 76.3974 23.7977L76.3974 23.7976Q75.8218 22.8917 75.8218 21.6201C75.8218 20.4468 76.2117 19.4992 76.9915 18.7772C77.7713 18.0552 78.8231 17.6311 80.1469 17.5047L84.0367 17.1528L84.0367 16.882C84.0367 16.3586 83.8553 15.9434 83.4926 15.6366C83.13 15.3117 82.6675 15.1492 82.1054 15.1492Q81.3242 15.1492 80.8649 15.5338Q80.4286 15.899 80.2829 16.6113L76.3931 16.0698Q76.6506 14.4138 77.6003 13.4181L77.6005 13.4179L77.6005 13.4179Q77.955 13.0463 78.406 12.7667Q80.0925 11.7379 82.4318 11.7379Q85.2063 11.7379 86.784 13.0645C87.8539 13.9309 88.3889 15.1673 88.3889 16.7737L88.3889 21.2139C88.3889 21.7013 88.6065 21.945 89.0417 21.945ZM115.942 12.0086L120.294 12.0086L120.294 25.4105L115.942 25.4105L115.942 24.3004Q115.662 24.59 115.34 24.8189L115.339 24.8192Q114.124 25.6812 112.297 25.6812C110.846 25.6812 109.613 25.221 108.598 24.3004C107.6 23.3619 107.102 22.0532 107.102 20.3746L107.102 12.0086L111.454 12.0086L111.454 19.427C111.454 20.2032 111.653 20.7898 112.052 21.1869Q112.126 21.2565 112.205 21.3177Q112.777 21.7554 113.684 21.7554C114.373 21.7554 114.917 21.5388 115.316 21.1056C115.733 20.6724 115.942 20.0407 115.942 19.2104L115.942 12.0086ZM70.4173 17.0174L65.249 17.0174C65.6842 15.79 66.5365 15.1763 67.8059 15.1763Q68.7211 15.1763 69.3529 15.5995L69.3532 15.5996L69.3553 15.6011Q69.4546 15.6678 69.5468 15.7449C70.0183 16.1059 70.3085 16.53 70.4173 17.0174ZM132.323 21.0515C131.742 21.6291 131.035 21.9179 130.201 21.9179Q129.412 21.9179 128.781 21.6013Q128.369 21.3941 128.025 21.0515C127.463 20.4559 127.181 19.6797 127.181 18.7231C127.181 17.7484 127.463 16.9723 128.025 16.3947C128.605 15.799 129.33 15.5012 130.201 15.5012C131.053 15.5012 131.76 15.799 132.323 16.3947C132.903 16.9723 133.193 17.7484 133.193 18.7231C133.193 19.6797 132.903 20.4559 132.323 21.0515ZM84.0367 20.158L84.0367 19.8602L81.4797 20.158C81.0445 20.2122 80.7 20.3566 80.4461 20.5912C80.1922 20.8078 80.0653 21.0695 80.0653 21.3764C80.0653 21.7374 80.2194 22.0172 80.5277 22.2157C80.8541 22.4142 81.2621 22.5045 81.7518 22.4864C82.4046 22.4503 82.9486 22.2337 83.3838 21.8367C83.8191 21.4396 84.0367 20.88 84.0367 20.158Z" fill="rgb(20,20,20)" fill-rule="evenodd" />
	</g>
</svg>
